<?xml version="1.0" encoding="us-ascii" standalone="no"?><svg xmlns="http://www.w3.org/2000/svg" xmlns:xlink="http://www.w3.org/1999/xlink" contentStyleType="text/css" height="495px" preserveAspectRatio="none" style="width:1048px;height:495px;background:#FFFFFF;" version="1.1" viewBox="0 0 1048 495" width="1048px" zoomAndPan="magnify"><defs/><g><text fill="#000000" font-family="sans-serif" font-size="14" font-weight="bold" lengthAdjust="spacing" textLength="183" x="431.75" y="30.1074">Sequence Diagram: US270</text><rect fill="#FFFFFF" height="269.959" style="stroke:#181818;stroke-width:1.0;" width="10" x="32.5" y="133.2422"/><rect fill="#FFFFFF" height="246.668" style="stroke:#181818;stroke-width:1.0;" width="10" x="545.5" y="156.5332"/><rect fill="#FFFFFF" height="31.291" style="stroke:#181818;stroke-width:1.0;" width="10" x="1004.5" y="250.4063"/><rect fill="none" height="98.5039" style="stroke:#000000;stroke-width:1.5;" width="571" x="10" y="296.6973"/><line style="stroke:#181818;stroke-width:0.5;stroke-dasharray:5.0,5.0;" x1="37" x2="37" y1="123.2422" y2="412.2012"/><line style="stroke:#181818;stroke-width:0.5;stroke-dasharray:5.0,5.0;" x1="550" x2="550" y1="123.2422" y2="412.2012"/><line style="stroke:#181818;stroke-width:0.5;stroke-dasharray:5.0,5.0;" x1="1009.5" x2="1009.5" y1="123.2422" y2="412.2012"/><text fill="#000000" font-family="sans-serif" font-size="14" lengthAdjust="spacing" textLength="29" x="20" y="119.7285">User</text><ellipse cx="37.5" cy="53.1211" fill="#E3E3E3" rx="8" ry="8" style="stroke:#181818;stroke-width:0.5;"/><path d="M37.5,61.1211 L37.5,88.1211 M24.5,69.1211 L50.5,69.1211 M37.5,88.1211 L24.5,103.1211 M37.5,88.1211 L50.5,103.1211 " fill="none" style="stroke:#181818;stroke-width:0.5;"/><text fill="#000000" font-family="sans-serif" font-size="14" lengthAdjust="spacing" textLength="29" x="20" y="426.3086">User</text><ellipse cx="37.5" cy="438.3223" fill="#E3E3E3" rx="8" ry="8" style="stroke:#181818;stroke-width:0.5;"/><path d="M37.5,446.3223 L37.5,473.3223 M24.5,454.3223 L50.5,454.3223 M37.5,473.3223 L24.5,488.3223 M37.5,473.3223 L50.5,488.3223 " fill="none" style="stroke:#181818;stroke-width:0.5;"/><rect fill="#E3E3E3" height="32.6211" rx="2.5" ry="2.5" style="stroke:#181818;stroke-width:0.5;" width="41" x="530" y="89.6211"/><text fill="#000000" font-family="sans-serif" font-size="14" lengthAdjust="spacing" textLength="27" x="537" y="111.7285">SPA</text><rect fill="#E3E3E3" height="32.6211" rx="2.5" ry="2.5" style="stroke:#181818;stroke-width:0.5;" width="41" x="530" y="411.2012"/><text fill="#000000" font-family="sans-serif" font-size="14" lengthAdjust="spacing" textLength="27" x="537" y="433.3086">SPA</text><rect fill="#E3E3E3" height="32.6211" rx="2.5" ry="2.5" style="stroke:#181818;stroke-width:0.5;" width="66" x="976.5" y="89.6211"/><text fill="#000000" font-family="sans-serif" font-size="14" lengthAdjust="spacing" textLength="52" x="983.5" y="111.7285">Elevator</text><rect fill="#E3E3E3" height="32.6211" rx="2.5" ry="2.5" style="stroke:#181818;stroke-width:0.5;" width="66" x="976.5" y="411.2012"/><text fill="#000000" font-family="sans-serif" font-size="14" lengthAdjust="spacing" textLength="52" x="983.5" y="433.3086">Elevator</text><rect fill="#FFFFFF" height="269.959" style="stroke:#181818;stroke-width:1.0;" width="10" x="32.5" y="133.2422"/><rect fill="#FFFFFF" height="246.668" style="stroke:#181818;stroke-width:1.0;" width="10" x="545.5" y="156.5332"/><rect fill="#FFFFFF" height="31.291" style="stroke:#181818;stroke-width:1.0;" width="10" x="1004.5" y="250.4063"/><polygon fill="#181818" points="533.5,152.5332,543.5,156.5332,533.5,160.5332,537.5,156.5332" style="stroke:#181818;stroke-width:1.0;"/><line style="stroke:#181818;stroke-width:1.0;" x1="42.5" x2="539.5" y1="156.5332" y2="156.5332"/><text fill="#000000" font-family="sans-serif" font-size="13" lengthAdjust="spacing" textLength="144" x="49.5" y="151.2705">Asks to create a elevator</text><polygon fill="#181818" points="53.5,183.8242,43.5,187.8242,53.5,191.8242,49.5,187.8242" style="stroke:#181818;stroke-width:1.0;"/><line style="stroke:#181818;stroke-width:1.0;" x1="47.5" x2="544.5" y1="187.8242" y2="187.8242"/><text fill="#000000" font-family="sans-serif" font-size="13" lengthAdjust="spacing" textLength="479" x="59.5" y="182.5615">Requests elevator data (building, floorList, brand, model, serialNumber, description)</text><polygon fill="#181818" points="533.5,215.1152,543.5,219.1152,533.5,223.1152,537.5,219.1152" style="stroke:#181818;stroke-width:1.0;"/><line style="stroke:#181818;stroke-width:1.0;" x1="42.5" x2="539.5" y1="219.1152" y2="219.1152"/><text fill="#000000" font-family="sans-serif" font-size="13" lengthAdjust="spacing" textLength="129" x="49.5" y="213.8525">Inserts requested data</text><polygon fill="#181818" points="992.5,246.4063,1002.5,250.4063,992.5,254.4063,996.5,250.4063" style="stroke:#181818;stroke-width:1.0;"/><line style="stroke:#181818;stroke-width:1.0;" x1="555.5" x2="998.5" y1="250.4063" y2="250.4063"/><text fill="#000000" font-family="sans-serif" font-size="13" lengthAdjust="spacing" textLength="430" x="562.5" y="245.1436">POST/ elevator{building, floorList, brand, model, serialNumber, description}</text><polygon fill="#181818" points="566.5,277.6973,556.5,281.6973,566.5,285.6973,562.5,281.6973" style="stroke:#181818;stroke-width:1.0;"/><line style="stroke:#181818;stroke-width:1.0;" x1="560.5" x2="1008.5" y1="281.6973" y2="281.6973"/><text fill="#000000" font-family="sans-serif" font-size="13" lengthAdjust="spacing" textLength="70" x="572.5" y="276.4346">Status code</text><path d="M10,296.6973 L71,296.6973 L71,305.9883 L61,315.9883 L10,315.9883 L10,296.6973 " fill="#EEEEEE" style="stroke:#000000;stroke-width:1.5;"/><rect fill="none" height="98.5039" style="stroke:#000000;stroke-width:1.5;" width="571" x="10" y="296.6973"/><text fill="#000000" font-family="sans-serif" font-size="13" font-weight="bold" lengthAdjust="spacing" textLength="16" x="25" y="311.7256">alt</text><text fill="#000000" font-family="sans-serif" font-size="11" font-weight="bold" lengthAdjust="spacing" textLength="101" x="86" y="310.5674">[successfull case]</text><polygon fill="#181818" points="53.5,335.2793,43.5,339.2793,53.5,343.2793,49.5,339.2793" style="stroke:#181818;stroke-width:1.0;"/><line style="stroke:#181818;stroke-width:1.0;" x1="47.5" x2="544.5" y1="339.2793" y2="339.2793"/><text fill="#000000" font-family="sans-serif" font-size="13" lengthAdjust="spacing" textLength="183" x="59.5" y="334.0166">Elevator is created successfully</text><line style="stroke:#000000;stroke-width:1.0;stroke-dasharray:2.0,2.0;" x1="10" x2="581" y1="348.2793" y2="348.2793"/><text fill="#000000" font-family="sans-serif" font-size="11" font-weight="bold" lengthAdjust="spacing" textLength="72" x="15" y="360.1494">[failure case]</text><polygon fill="#181818" points="53.5,383.2012,43.5,387.2012,53.5,391.2012,49.5,387.2012" style="stroke:#181818;stroke-width:1.0;"/><line style="stroke:#181818;stroke-width:1.0;" x1="47.5" x2="544.5" y1="387.2012" y2="387.2012"/><text fill="#000000" font-family="sans-serif" font-size="13" lengthAdjust="spacing" textLength="129" x="59.5" y="381.9385">Elevator is not created</text><!--SRC=[fL9DJyCm3BtdLrWxWLG4ueBK0z8aE23nCL7s0xp4wwAboOXTq8JuxpWTBUF4WKjYo-yzFplXhOyxpDZ1Guh9RdBg22JtP7YgBD1kiQL6ze4WanMCRJW6D1jqwTt75jOOc8mHBmfjwBMdQ0bkFBQAgs7PN5vT68DMKeRPaYdF01bAO5HAlFKxZ0ApPZ4VAdh_Bjm6UaDb3zKn6HIzXdIGCkM4i-j2Xnhcl6MG13PJWI3Go9jefKy1AwTmQtWktbbume93GJXPzJuudRI2TKWfttkM2bOPewkWIuv21Sht61xxRaMv0aTiiz-9J_7qs5SDTr4pxP0FhSWDBSpeOnokXiLJyt8-6VduZuNFdv6dvOt1PAmHb9x1gfPnD19qoK60Usk9UTs701RrhNzjRPBo_BrjTypO6zBleP_4XpxJ7_oOPDGm59tv0W00]--></g></svg>