<?xml version="1.0" encoding="us-ascii" standalone="no"?><svg xmlns="http://www.w3.org/2000/svg" xmlns:xlink="http://www.w3.org/1999/xlink" contentStyleType="text/css" height="221px" preserveAspectRatio="none" style="width:306px;height:221px;background:#FFFFFF;" version="1.1" viewBox="0 0 306 221" width="306px" zoomAndPan="magnify"><defs/><g><rect fill="#FFFFFF" height="126.1641" style="stroke:#181818;stroke-width:1.0;" width="10" x="21.5" y="48.6211"/><rect fill="#FFFFFF" height="31.291" style="stroke:#181818;stroke-width:1.0;" width="10" x="282.5" y="71.9121"/><rect fill="#FFFFFF" height="31.291" style="stroke:#181818;stroke-width:1.0;" width="10" x="282.5" y="134.4941"/><line style="stroke:#181818;stroke-width:0.5;stroke-dasharray:5.0,5.0;" x1="26" x2="26" y1="38.6211" y2="183.7852"/><line style="stroke:#181818;stroke-width:0.5;stroke-dasharray:5.0,5.0;" x1="287.5" x2="287.5" y1="38.6211" y2="183.7852"/><rect fill="#E2E2F0" height="32.6211" rx="2.5" ry="2.5" style="stroke:#181818;stroke-width:0.5;" width="43" x="5" y="5"/><text fill="#000000" font-family="sans-serif" font-size="14" lengthAdjust="spacing" textLength="29" x="12" y="27.1074">User</text><rect fill="#E2E2F0" height="32.6211" rx="2.5" ry="2.5" style="stroke:#181818;stroke-width:0.5;" width="43" x="5" y="182.7852"/><text fill="#000000" font-family="sans-serif" font-size="14" lengthAdjust="spacing" textLength="29" x="12" y="204.8926">User</text><rect fill="#E2E2F0" height="32.6211" rx="2.5" ry="2.5" style="stroke:#181818;stroke-width:0.5;" width="26" x="274.5" y="5"/><text fill="#000000" font-family="sans-serif" font-size="14" lengthAdjust="spacing" textLength="12" x="281.5" y="27.1074">UI</text><rect fill="#E2E2F0" height="32.6211" rx="2.5" ry="2.5" style="stroke:#181818;stroke-width:0.5;" width="26" x="274.5" y="182.7852"/><text fill="#000000" font-family="sans-serif" font-size="14" lengthAdjust="spacing" textLength="12" x="281.5" y="204.8926">UI</text><rect fill="#FFFFFF" height="126.1641" style="stroke:#181818;stroke-width:1.0;" width="10" x="21.5" y="48.6211"/><rect fill="#FFFFFF" height="31.291" style="stroke:#181818;stroke-width:1.0;" width="10" x="282.5" y="71.9121"/><rect fill="#FFFFFF" height="31.291" style="stroke:#181818;stroke-width:1.0;" width="10" x="282.5" y="134.4941"/><polygon fill="#181818" points="270.5,67.9121,280.5,71.9121,270.5,75.9121,274.5,71.9121" style="stroke:#181818;stroke-width:1.0;"/><line style="stroke:#181818;stroke-width:1.0;" x1="31.5" x2="276.5" y1="71.9121" y2="71.9121"/><text fill="#000000" font-family="sans-serif" font-size="13" lengthAdjust="spacing" textLength="105" x="38.5" y="66.6494">Asks for floor map</text><polygon fill="#181818" points="42.5,99.2031,32.5,103.2031,42.5,107.2031,38.5,103.2031" style="stroke:#181818;stroke-width:1.0;"/><line style="stroke:#181818;stroke-width:1.0;stroke-dasharray:2.0,2.0;" x1="36.5" x2="286.5" y1="103.2031" y2="103.2031"/><text fill="#000000" font-family="sans-serif" font-size="13" lengthAdjust="spacing" textLength="227" x="48.5" y="97.9404">Requests data (buildingId, floorNumber)</text><polygon fill="#181818" points="270.5,130.4941,280.5,134.4941,270.5,138.4941,274.5,134.4941" style="stroke:#181818;stroke-width:1.0;"/><line style="stroke:#181818;stroke-width:1.0;" x1="31.5" x2="276.5" y1="134.4941" y2="134.4941"/><text fill="#000000" font-family="sans-serif" font-size="13" lengthAdjust="spacing" textLength="125" x="38.5" y="129.2314">Types requested data</text><polygon fill="#181818" points="42.5,161.7852,32.5,165.7852,42.5,169.7852,38.5,165.7852" style="stroke:#181818;stroke-width:1.0;"/><line style="stroke:#181818;stroke-width:1.0;stroke-dasharray:2.0,2.0;" x1="36.5" x2="286.5" y1="165.7852" y2="165.7852"/><text fill="#000000" font-family="sans-serif" font-size="13" lengthAdjust="spacing" textLength="161" x="48.5" y="160.5225">Informs operation's success</text><!--SRC=[VOun3i8m40Hxls8xG28VI854wOO2aGTSx0koYEFWiv7uFROi8Q2WsMfsTiaazw3468IZge7kW46Znr5kWYb4J7CewMbLzAQrAanNqLhfSUPxPaa2Iucm7RERhLkkskvR_PJzo76dB7yvFlSkpvK5iOdODjEVIRsKSruGLewKN5Ws0id6iCZFp0i0]--></g></svg>