<?xml version="1.0" encoding="us-ascii" standalone="no"?><svg xmlns="http://www.w3.org/2000/svg" xmlns:xlink="http://www.w3.org/1999/xlink" contentStyleType="text/css" height="480px" preserveAspectRatio="none" style="width:656px;height:480px;background:#FFFFFF;" version="1.1" viewBox="0 0 656 480" width="656px" zoomAndPan="magnify"><defs/><g><text fill="#000000" font-family="sans-serif" font-size="14" font-weight="bold" lengthAdjust="spacing" textLength="183" x="235.5" y="30.1074">Sequence Diagram: US150</text><rect fill="#FFFFFF" height="345.2012" style="stroke:#181818;stroke-width:1.0;" width="10" x="20.5" y="88.2422"/><rect fill="#FFFFFF" height="321.9102" style="stroke:#181818;stroke-width:1.0;" width="10" x="127.5" y="111.5332"/><rect fill="#FFFFFF" height="290.6191" style="stroke:#181818;stroke-width:1.0;" width="10" x="254.5" y="142.8242"/><rect fill="#FFFFFF" height="259.3281" style="stroke:#181818;stroke-width:1.0;" width="10" x="366" y="174.1152"/><rect fill="#FFFFFF" height="31.291" style="stroke:#181818;stroke-width:1.0;" width="10" x="463.5" y="236.6973"/><rect fill="#FFFFFF" height="31.291" style="stroke:#181818;stroke-width:1.0;" width="10" x="551" y="299.2793"/><line style="stroke:#181818;stroke-width:0.5;stroke-dasharray:5.0,5.0;" x1="25" x2="25" y1="78.2422" y2="442.4434"/><line style="stroke:#181818;stroke-width:0.5;stroke-dasharray:5.0,5.0;" x1="132" x2="132" y1="78.2422" y2="442.4434"/><line style="stroke:#181818;stroke-width:0.5;stroke-dasharray:5.0,5.0;" x1="259" x2="259" y1="78.2422" y2="442.4434"/><line style="stroke:#181818;stroke-width:0.5;stroke-dasharray:5.0,5.0;" x1="371" x2="371" y1="78.2422" y2="442.4434"/><line style="stroke:#181818;stroke-width:0.5;stroke-dasharray:5.0,5.0;" x1="468" x2="468" y1="78.2422" y2="442.4434"/><line style="stroke:#181818;stroke-width:0.5;stroke-dasharray:5.0,5.0;" x1="556" x2="556" y1="78.2422" y2="442.4434"/><line style="stroke:#181818;stroke-width:0.5;stroke-dasharray:5.0,5.0;" x1="626" x2="626" y1="78.2422" y2="442.4434"/><rect fill="#E3E3E3" height="32.6211" rx="2.5" ry="2.5" style="stroke:#181818;stroke-width:0.5;" width="41" x="5" y="44.6211"/><text fill="#000000" font-family="sans-serif" font-size="14" lengthAdjust="spacing" textLength="27" x="12" y="66.7285">SPA</text><rect fill="#E3E3E3" height="32.6211" rx="2.5" ry="2.5" style="stroke:#181818;stroke-width:0.5;" width="41" x="5" y="441.4434"/><text fill="#000000" font-family="sans-serif" font-size="14" lengthAdjust="spacing" textLength="27" x="12" y="463.5508">SPA</text><rect fill="#E3E3E3" height="32.6211" rx="2.5" ry="2.5" style="stroke:#181818;stroke-width:0.5;" width="35" x="115" y="44.6211"/><text fill="#000000" font-family="sans-serif" font-size="14" lengthAdjust="spacing" textLength="21" x="122" y="66.7285">API</text><rect fill="#E3E3E3" height="32.6211" rx="2.5" ry="2.5" style="stroke:#181818;stroke-width:0.5;" width="35" x="115" y="441.4434"/><text fill="#000000" font-family="sans-serif" font-size="14" lengthAdjust="spacing" textLength="21" x="122" y="463.5508">API</text><rect fill="#E3E3E3" height="32.6211" rx="2.5" ry="2.5" style="stroke:#181818;stroke-width:0.5;" width="109" x="205" y="44.6211"/><text fill="#000000" font-family="sans-serif" font-size="14" lengthAdjust="spacing" textLength="95" x="212" y="66.7285">FloorController</text><rect fill="#E3E3E3" height="32.6211" rx="2.5" ry="2.5" style="stroke:#181818;stroke-width:0.5;" width="109" x="205" y="441.4434"/><text fill="#000000" font-family="sans-serif" font-size="14" lengthAdjust="spacing" textLength="95" x="212" y="463.5508">FloorController</text><rect fill="#E3E3E3" height="32.6211" rx="2.5" ry="2.5" style="stroke:#181818;stroke-width:0.5;" width="94" x="324" y="44.6211"/><text fill="#000000" font-family="sans-serif" font-size="14" lengthAdjust="spacing" textLength="80" x="331" y="66.7285">FloorService</text><rect fill="#E3E3E3" height="32.6211" rx="2.5" ry="2.5" style="stroke:#181818;stroke-width:0.5;" width="94" x="324" y="441.4434"/><text fill="#000000" font-family="sans-serif" font-size="14" lengthAdjust="spacing" textLength="80" x="331" y="463.5508">FloorService</text><rect fill="#E3E3E3" height="32.6211" rx="2.5" ry="2.5" style="stroke:#181818;stroke-width:0.5;" width="81" x="428" y="44.6211"/><text fill="#000000" font-family="sans-serif" font-size="14" lengthAdjust="spacing" textLength="67" x="435" y="66.7285">FloorRepo</text><rect fill="#E3E3E3" height="32.6211" rx="2.5" ry="2.5" style="stroke:#181818;stroke-width:0.5;" width="81" x="428" y="441.4434"/><text fill="#000000" font-family="sans-serif" font-size="14" lengthAdjust="spacing" textLength="67" x="435" y="463.5508">FloorRepo</text><rect fill="#E3E3E3" height="32.6211" rx="2.5" ry="2.5" style="stroke:#181818;stroke-width:0.5;" width="74" x="519" y="44.6211"/><text fill="#000000" font-family="sans-serif" font-size="14" lengthAdjust="spacing" textLength="60" x="526" y="66.7285">FloorMap</text><rect fill="#E3E3E3" height="32.6211" rx="2.5" ry="2.5" style="stroke:#181818;stroke-width:0.5;" width="74" x="519" y="441.4434"/><text fill="#000000" font-family="sans-serif" font-size="14" lengthAdjust="spacing" textLength="60" x="526" y="463.5508">FloorMap</text><rect fill="#E3E3E3" height="32.6211" rx="2.5" ry="2.5" style="stroke:#181818;stroke-width:0.5;" width="47" x="603" y="44.6211"/><text fill="#000000" font-family="sans-serif" font-size="14" lengthAdjust="spacing" textLength="33" x="610" y="66.7285">Floor</text><rect fill="#E3E3E3" height="32.6211" rx="2.5" ry="2.5" style="stroke:#181818;stroke-width:0.5;" width="47" x="603" y="441.4434"/><text fill="#000000" font-family="sans-serif" font-size="14" lengthAdjust="spacing" textLength="33" x="610" y="463.5508">Floor</text><rect fill="#FFFFFF" height="345.2012" style="stroke:#181818;stroke-width:1.0;" width="10" x="20.5" y="88.2422"/><rect fill="#FFFFFF" height="321.9102" style="stroke:#181818;stroke-width:1.0;" width="10" x="127.5" y="111.5332"/><rect fill="#FFFFFF" height="290.6191" style="stroke:#181818;stroke-width:1.0;" width="10" x="254.5" y="142.8242"/><rect fill="#FFFFFF" height="259.3281" style="stroke:#181818;stroke-width:1.0;" width="10" x="366" y="174.1152"/><rect fill="#FFFFFF" height="31.291" style="stroke:#181818;stroke-width:1.0;" width="10" x="463.5" y="236.6973"/><rect fill="#FFFFFF" height="31.291" style="stroke:#181818;stroke-width:1.0;" width="10" x="551" y="299.2793"/><polygon fill="#181818" points="115.5,107.5332,125.5,111.5332,115.5,115.5332,119.5,111.5332" style="stroke:#181818;stroke-width:1.0;"/><line style="stroke:#181818;stroke-width:1.0;" x1="30.5" x2="121.5" y1="111.5332" y2="111.5332"/><text fill="#000000" font-family="sans-serif" font-size="13" lengthAdjust="spacing" textLength="78" x="37.5" y="106.2705">post(api/floor)</text><polygon fill="#181818" points="242.5,138.8242,252.5,142.8242,242.5,146.8242,246.5,142.8242" style="stroke:#181818;stroke-width:1.0;"/><line style="stroke:#181818;stroke-width:1.0;" x1="137.5" x2="248.5" y1="142.8242" y2="142.8242"/><text fill="#000000" font-family="sans-serif" font-size="13" lengthAdjust="spacing" textLength="25" x="144.5" y="137.5615">post</text><polygon fill="#181818" points="354,170.1152,364,174.1152,354,178.1152,358,174.1152" style="stroke:#181818;stroke-width:1.0;"/><line style="stroke:#181818;stroke-width:1.0;" x1="264.5" x2="360" y1="174.1152" y2="174.1152"/><text fill="#000000" font-family="sans-serif" font-size="13" lengthAdjust="spacing" textLength="77" x="271.5" y="168.8525">create Floor()</text><polygon fill="#181818" points="614.5,201.4063,624.5,205.4063,614.5,209.4063,618.5,205.4063" style="stroke:#181818;stroke-width:1.0;"/><line style="stroke:#181818;stroke-width:1.0;" x1="376" x2="620.5" y1="205.4063" y2="205.4063"/><text fill="#000000" font-family="sans-serif" font-size="13" lengthAdjust="spacing" textLength="36" x="383" y="200.1436">create</text><polygon fill="#181818" points="451.5,232.6973,461.5,236.6973,451.5,240.6973,455.5,236.6973" style="stroke:#181818;stroke-width:1.0;"/><line style="stroke:#181818;stroke-width:1.0;" x1="376" x2="457.5" y1="236.6973" y2="236.6973"/><text fill="#000000" font-family="sans-serif" font-size="13" lengthAdjust="spacing" textLength="58" x="383" y="231.4346">save(floor)</text><polygon fill="#181818" points="387,263.9883,377,267.9883,387,271.9883,383,267.9883" style="stroke:#181818;stroke-width:1.0;"/><line style="stroke:#181818;stroke-width:1.0;" x1="381" x2="467.5" y1="267.9883" y2="267.9883"/><text fill="#000000" font-family="sans-serif" font-size="13" lengthAdjust="spacing" textLength="24" x="393" y="262.7256">floor</text><polygon fill="#181818" points="539,295.2793,549,299.2793,539,303.2793,543,299.2793" style="stroke:#181818;stroke-width:1.0;"/><line style="stroke:#181818;stroke-width:1.0;" x1="376" x2="545" y1="299.2793" y2="299.2793"/><text fill="#000000" font-family="sans-serif" font-size="13" lengthAdjust="spacing" textLength="69" x="383" y="294.0166">toDTO(floor)</text><polygon fill="#181818" points="387,326.5703,377,330.5703,387,334.5703,383,330.5703" style="stroke:#181818;stroke-width:1.0;"/><line style="stroke:#181818;stroke-width:1.0;" x1="381" x2="555" y1="330.5703" y2="330.5703"/><text fill="#000000" font-family="sans-serif" font-size="13" lengthAdjust="spacing" textLength="50" x="393" y="325.3076">floorDTO</text><polygon fill="#181818" points="275.5,357.8613,265.5,361.8613,275.5,365.8613,271.5,361.8613" style="stroke:#181818;stroke-width:1.0;"/><line style="stroke:#181818;stroke-width:1.0;" x1="269.5" x2="365" y1="361.8613" y2="361.8613"/><text fill="#000000" font-family="sans-serif" font-size="13" lengthAdjust="spacing" textLength="58" x="281.5" y="356.5986">floorDTO()</text><polygon fill="#181818" points="148.5,389.1523,138.5,393.1523,148.5,397.1523,144.5,393.1523" style="stroke:#181818;stroke-width:1.0;"/><line style="stroke:#181818;stroke-width:1.0;" x1="142.5" x2="253.5" y1="393.1523" y2="393.1523"/><text fill="#000000" font-family="sans-serif" font-size="13" lengthAdjust="spacing" textLength="93" x="154.5" y="387.8896">status code 201</text><polygon fill="#181818" points="41.5,420.4434,31.5,424.4434,41.5,428.4434,37.5,424.4434" style="stroke:#181818;stroke-width:1.0;"/><line style="stroke:#181818;stroke-width:1.0;" x1="35.5" x2="126.5" y1="424.4434" y2="424.4434"/><text fill="#000000" font-family="sans-serif" font-size="13" lengthAdjust="spacing" textLength="51" x="47.5" y="419.1807">Success</text><!--SRC=[RP51JiCm44NtFiMegx90j4Xiia2gg2gngAWm763aJ5EhgHtiIH2tntOQ4jD4SiRHVpFs__5dRHfqU86zDLQTdBqGi6j9-3_bWEgC5Kd-gGaSAKPJrLD0dh2qtzfKSCJQan2iEQ2IlbeoYc2hiGfS0Pzo_RGI8dInLhf1mx2GXyq2q4EekR0vl2OXr5pOrTQw5slOsRecbw3nSuQLv3gjg3-ctyzGxzJOXCJDZBx79icXpgX9WhGLyK75kaEcv2iik7-EJWfehESbDlhX6Dcx4Om-muhWwARdHsZYSzp6bgkl0fIZ2AQRB2VZ1-FN6djwQ6WHKobcK837ZfR_xvdYYQ_is4I9ad8icnc2Au3jzkFjPcRCDApRYG6U3CtdJLCQuE0upoLbxXcvzQ1iIV2uMWynXzzIW6oL8k-5-0K0]--></g></svg>