<?xml version="1.0" encoding="us-ascii" standalone="no"?><svg xmlns="http://www.w3.org/2000/svg" xmlns:xlink="http://www.w3.org/1999/xlink" contentStyleType="text/css" height="480px" preserveAspectRatio="none" style="width:844px;height:480px;background:#FFFFFF;" version="1.1" viewBox="0 0 844 480" width="844px" zoomAndPan="magnify"><defs/><g><text fill="#000000" font-family="sans-serif" font-size="14" font-weight="bold" lengthAdjust="spacing" textLength="183" x="329.75" y="30.1074">Sequence Diagram: US150</text><rect fill="#FFFFFF" height="345.2012" style="stroke:#181818;stroke-width:1.0;" width="10" x="20.5" y="88.2422"/><rect fill="#FFFFFF" height="321.9102" style="stroke:#181818;stroke-width:1.0;" width="10" x="154.5" y="111.5332"/><rect fill="#FFFFFF" height="290.6191" style="stroke:#181818;stroke-width:1.0;" width="10" x="281.5" y="142.8242"/><rect fill="#FFFFFF" height="259.3281" style="stroke:#181818;stroke-width:1.0;" width="10" x="412" y="174.1152"/><rect fill="#FFFFFF" height="31.291" style="stroke:#181818;stroke-width:1.0;" width="10" x="528.5" y="236.6973"/><rect fill="#FFFFFF" height="31.291" style="stroke:#181818;stroke-width:1.0;" width="10" x="635" y="299.2793"/><line style="stroke:#181818;stroke-width:0.5;stroke-dasharray:5.0,5.0;" x1="25" x2="25" y1="78.2422" y2="442.4434"/><line style="stroke:#181818;stroke-width:0.5;stroke-dasharray:5.0,5.0;" x1="159.5" x2="159.5" y1="78.2422" y2="442.4434"/><line style="stroke:#181818;stroke-width:0.5;stroke-dasharray:5.0,5.0;" x1="286.5" x2="286.5" y1="78.2422" y2="442.4434"/><line style="stroke:#181818;stroke-width:0.5;stroke-dasharray:5.0,5.0;" x1="416.5" x2="416.5" y1="78.2422" y2="442.4434"/><line style="stroke:#181818;stroke-width:0.5;stroke-dasharray:5.0,5.0;" x1="533.5" x2="533.5" y1="78.2422" y2="442.4434"/><line style="stroke:#181818;stroke-width:0.5;stroke-dasharray:5.0,5.0;" x1="639.5" x2="639.5" y1="78.2422" y2="442.4434"/><line style="stroke:#181818;stroke-width:0.5;stroke-dasharray:5.0,5.0;" x1="729.5" x2="729.5" y1="78.2422" y2="442.4434"/><line style="stroke:#181818;stroke-width:0.5;stroke-dasharray:5.0,5.0;" x1="805.5" x2="805.5" y1="78.2422" y2="442.4434"/><rect fill="#E3E3E3" height="32.6211" rx="2.5" ry="2.5" style="stroke:#181818;stroke-width:0.5;" width="41" x="5" y="44.6211"/><text fill="#000000" font-family="sans-serif" font-size="14" lengthAdjust="spacing" textLength="27" x="12" y="66.7285">SPA</text><rect fill="#E3E3E3" height="32.6211" rx="2.5" ry="2.5" style="stroke:#181818;stroke-width:0.5;" width="41" x="5" y="441.4434"/><text fill="#000000" font-family="sans-serif" font-size="14" lengthAdjust="spacing" textLength="27" x="12" y="463.5508">SPA</text><rect fill="#E3E3E3" height="32.6211" rx="2.5" ry="2.5" style="stroke:#181818;stroke-width:0.5;" width="104" x="107.5" y="44.6211"/><text fill="#000000" font-family="sans-serif" font-size="14" lengthAdjust="spacing" textLength="90" x="114.5" y="66.7285">GestaoInfoAPI</text><rect fill="#E3E3E3" height="32.6211" rx="2.5" ry="2.5" style="stroke:#181818;stroke-width:0.5;" width="104" x="107.5" y="441.4434"/><text fill="#000000" font-family="sans-serif" font-size="14" lengthAdjust="spacing" textLength="90" x="114.5" y="463.5508">GestaoInfoAPI</text><rect fill="#E3E3E3" height="32.6211" rx="2.5" ry="2.5" style="stroke:#181818;stroke-width:0.5;" width="128" x="222.5" y="44.6211"/><text fill="#000000" font-family="sans-serif" font-size="14" lengthAdjust="spacing" textLength="114" x="229.5" y="66.7285">ElevatorController</text><rect fill="#E3E3E3" height="32.6211" rx="2.5" ry="2.5" style="stroke:#181818;stroke-width:0.5;" width="128" x="222.5" y="441.4434"/><text fill="#000000" font-family="sans-serif" font-size="14" lengthAdjust="spacing" textLength="114" x="229.5" y="463.5508">ElevatorController</text><rect fill="#E3E3E3" height="32.6211" rx="2.5" ry="2.5" style="stroke:#181818;stroke-width:0.5;" width="113" x="360.5" y="44.6211"/><text fill="#000000" font-family="sans-serif" font-size="14" lengthAdjust="spacing" textLength="99" x="367.5" y="66.7285">ElevatorService</text><rect fill="#E3E3E3" height="32.6211" rx="2.5" ry="2.5" style="stroke:#181818;stroke-width:0.5;" width="113" x="360.5" y="441.4434"/><text fill="#000000" font-family="sans-serif" font-size="14" lengthAdjust="spacing" textLength="99" x="367.5" y="463.5508">ElevatorService</text><rect fill="#E3E3E3" height="32.6211" rx="2.5" ry="2.5" style="stroke:#181818;stroke-width:0.5;" width="100" x="483.5" y="44.6211"/><text fill="#000000" font-family="sans-serif" font-size="14" lengthAdjust="spacing" textLength="86" x="490.5" y="66.7285">ElevatorRepo</text><rect fill="#E3E3E3" height="32.6211" rx="2.5" ry="2.5" style="stroke:#181818;stroke-width:0.5;" width="100" x="483.5" y="441.4434"/><text fill="#000000" font-family="sans-serif" font-size="14" lengthAdjust="spacing" textLength="86" x="490.5" y="463.5508">ElevatorRepo</text><rect fill="#E3E3E3" height="32.6211" rx="2.5" ry="2.5" style="stroke:#181818;stroke-width:0.5;" width="93" x="593.5" y="44.6211"/><text fill="#000000" font-family="sans-serif" font-size="14" lengthAdjust="spacing" textLength="79" x="600.5" y="66.7285">ElevatorMap</text><rect fill="#E3E3E3" height="32.6211" rx="2.5" ry="2.5" style="stroke:#181818;stroke-width:0.5;" width="93" x="593.5" y="441.4434"/><text fill="#000000" font-family="sans-serif" font-size="14" lengthAdjust="spacing" textLength="79" x="600.5" y="463.5508">ElevatorMap</text><rect fill="#E3E3E3" height="32.6211" rx="2.5" ry="2.5" style="stroke:#181818;stroke-width:0.5;" width="66" x="696.5" y="44.6211"/><text fill="#000000" font-family="sans-serif" font-size="14" lengthAdjust="spacing" textLength="52" x="703.5" y="66.7285">Elevator</text><rect fill="#E3E3E3" height="32.6211" rx="2.5" ry="2.5" style="stroke:#181818;stroke-width:0.5;" width="66" x="696.5" y="441.4434"/><text fill="#000000" font-family="sans-serif" font-size="14" lengthAdjust="spacing" textLength="52" x="703.5" y="463.5508">Elevator</text><rect fill="#E3E3E3" height="32.6211" rx="2.5" ry="2.5" style="stroke:#181818;stroke-width:0.5;" width="66" x="772.5" y="44.6211"/><text fill="#000000" font-family="sans-serif" font-size="14" lengthAdjust="spacing" textLength="52" x="779.5" y="66.7285">Elevator</text><rect fill="#E3E3E3" height="32.6211" rx="2.5" ry="2.5" style="stroke:#181818;stroke-width:0.5;" width="66" x="772.5" y="441.4434"/><text fill="#000000" font-family="sans-serif" font-size="14" lengthAdjust="spacing" textLength="52" x="779.5" y="463.5508">Elevator</text><rect fill="#FFFFFF" height="345.2012" style="stroke:#181818;stroke-width:1.0;" width="10" x="20.5" y="88.2422"/><rect fill="#FFFFFF" height="321.9102" style="stroke:#181818;stroke-width:1.0;" width="10" x="154.5" y="111.5332"/><rect fill="#FFFFFF" height="290.6191" style="stroke:#181818;stroke-width:1.0;" width="10" x="281.5" y="142.8242"/><rect fill="#FFFFFF" height="259.3281" style="stroke:#181818;stroke-width:1.0;" width="10" x="412" y="174.1152"/><rect fill="#FFFFFF" height="31.291" style="stroke:#181818;stroke-width:1.0;" width="10" x="528.5" y="236.6973"/><rect fill="#FFFFFF" height="31.291" style="stroke:#181818;stroke-width:1.0;" width="10" x="635" y="299.2793"/><polygon fill="#181818" points="142.5,107.5332,152.5,111.5332,142.5,115.5332,146.5,111.5332" style="stroke:#181818;stroke-width:1.0;"/><line style="stroke:#181818;stroke-width:1.0;" x1="30.5" x2="148.5" y1="111.5332" y2="111.5332"/><text fill="#000000" font-family="sans-serif" font-size="13" lengthAdjust="spacing" textLength="105" x="37.5" y="106.2705">post(api/elevators)</text><polygon fill="#181818" points="269.5,138.8242,279.5,142.8242,269.5,146.8242,273.5,142.8242" style="stroke:#181818;stroke-width:1.0;"/><line style="stroke:#181818;stroke-width:1.0;" x1="164.5" x2="275.5" y1="142.8242" y2="142.8242"/><text fill="#000000" font-family="sans-serif" font-size="13" lengthAdjust="spacing" textLength="25" x="171.5" y="137.5615">post</text><polygon fill="#181818" points="400,170.1152,410,174.1152,400,178.1152,404,174.1152" style="stroke:#181818;stroke-width:1.0;"/><line style="stroke:#181818;stroke-width:1.0;" x1="291.5" x2="406" y1="174.1152" y2="174.1152"/><text fill="#000000" font-family="sans-serif" font-size="13" lengthAdjust="spacing" textLength="90" x="298.5" y="168.8525">createElevator()</text><polygon fill="#181818" points="793.5,201.4063,803.5,205.4063,793.5,209.4063,797.5,205.4063" style="stroke:#181818;stroke-width:1.0;"/><line style="stroke:#181818;stroke-width:1.0;" x1="422" x2="799.5" y1="205.4063" y2="205.4063"/><text fill="#000000" font-family="sans-serif" font-size="13" lengthAdjust="spacing" textLength="36" x="429" y="200.1436">create</text><polygon fill="#181818" points="516.5,232.6973,526.5,236.6973,516.5,240.6973,520.5,236.6973" style="stroke:#181818;stroke-width:1.0;"/><line style="stroke:#181818;stroke-width:1.0;" x1="422" x2="522.5" y1="236.6973" y2="236.6973"/><text fill="#000000" font-family="sans-serif" font-size="13" lengthAdjust="spacing" textLength="78" x="429" y="231.4346">save(elevator)</text><polygon fill="#181818" points="433,263.9883,423,267.9883,433,271.9883,429,267.9883" style="stroke:#181818;stroke-width:1.0;"/><line style="stroke:#181818;stroke-width:1.0;" x1="427" x2="532.5" y1="267.9883" y2="267.9883"/><text fill="#000000" font-family="sans-serif" font-size="13" lengthAdjust="spacing" textLength="44" x="439" y="262.7256">elevator</text><polygon fill="#181818" points="623,295.2793,633,299.2793,623,303.2793,627,299.2793" style="stroke:#181818;stroke-width:1.0;"/><line style="stroke:#181818;stroke-width:1.0;" x1="422" x2="629" y1="299.2793" y2="299.2793"/><text fill="#000000" font-family="sans-serif" font-size="13" lengthAdjust="spacing" textLength="89" x="429" y="294.0166">toDTO(elevator)</text><polygon fill="#181818" points="433,326.5703,423,330.5703,433,334.5703,429,330.5703" style="stroke:#181818;stroke-width:1.0;"/><line style="stroke:#181818;stroke-width:1.0;" x1="427" x2="639" y1="330.5703" y2="330.5703"/><text fill="#000000" font-family="sans-serif" font-size="13" lengthAdjust="spacing" textLength="70" x="439" y="325.3076">elevatorDTO</text><polygon fill="#181818" points="302.5,357.8613,292.5,361.8613,302.5,365.8613,298.5,361.8613" style="stroke:#181818;stroke-width:1.0;"/><line style="stroke:#181818;stroke-width:1.0;" x1="296.5" x2="411" y1="361.8613" y2="361.8613"/><text fill="#000000" font-family="sans-serif" font-size="13" lengthAdjust="spacing" textLength="78" x="308.5" y="356.5986">elevatorDTO()</text><polygon fill="#181818" points="175.5,389.1523,165.5,393.1523,175.5,397.1523,171.5,393.1523" style="stroke:#181818;stroke-width:1.0;"/><line style="stroke:#181818;stroke-width:1.0;" x1="169.5" x2="280.5" y1="393.1523" y2="393.1523"/><text fill="#000000" font-family="sans-serif" font-size="13" lengthAdjust="spacing" textLength="93" x="181.5" y="387.8896">status code 201</text><polygon fill="#181818" points="41.5,420.4434,31.5,424.4434,41.5,428.4434,37.5,424.4434" style="stroke:#181818;stroke-width:1.0;"/><line style="stroke:#181818;stroke-width:1.0;" x1="35.5" x2="153.5" y1="424.4434" y2="424.4434"/><text fill="#000000" font-family="sans-serif" font-size="13" lengthAdjust="spacing" textLength="51" x="47.5" y="419.1807">Success</text><!--SRC=[RPB1JiCm38RlUGfhft50R4XSUa0Q6q8xJ4mK7i1AlIvQbvGa7UBjSRA59b8hkKxbxtVYFtKdfNkqU8QTqKOUhJaJU3kGSF-LFSeJjbJxtux0alIesou7wYCsvaVf5WxOEHB2AyzeJTy3QKcmKTWoLy5NlNnQ2C4ghwJgKNkOrVlL3D01vxBmHiwZsUg3MUst4U5S8gyTNT0RkpRQMzDrP2CtVaxZDTcBadJTzhgU1Z-eDv4AYsbaXtqaE4y3iVeogAvXWqHuK7h59OeZSy3zSnYjWjuuFyTUFT1Dw-v6E0pF4U1nlgjcXBB9nsMGtCQiG5fYC1rkdcsGdBZbe4fOaecy63ofmE65vkcyMRVeM7WLkoTGD5IIHMVsiW9lDf_lKvs3qnoJVLcIjIwxvgvbF5jGMXMlWdyzFpYGfY5uN2oJytnR5TI3bEIS47y0]--></g></svg>