<?xml version="1.0" encoding="us-ascii" standalone="no"?><svg xmlns="http://www.w3.org/2000/svg" xmlns:xlink="http://www.w3.org/1999/xlink" contentStyleType="text/css" height="495px" preserveAspectRatio="none" style="width:776px;height:495px;background:#FFFFFF;" version="1.1" viewBox="0 0 776 495" width="776px" zoomAndPan="magnify"><defs/><g><text fill="#000000" font-family="sans-serif" font-size="14" font-weight="bold" lengthAdjust="spacing" textLength="183" x="295.5" y="30.1074">Sequence Diagram: US150</text><rect fill="#FFFFFF" height="269.959" style="stroke:#181818;stroke-width:1.0;" width="10" x="32.5" y="133.2422"/><rect fill="#FFFFFF" height="246.668" style="stroke:#181818;stroke-width:1.0;" width="10" x="408.5" y="156.5332"/><rect fill="#FFFFFF" height="31.291" style="stroke:#181818;stroke-width:1.0;" width="10" x="730.5" y="250.4063"/><rect fill="none" height="98.5039" style="stroke:#000000;stroke-width:1.5;" width="434" x="10" y="296.6973"/><line style="stroke:#181818;stroke-width:0.5;stroke-dasharray:5.0,5.0;" x1="37" x2="37" y1="123.2422" y2="412.2012"/><line style="stroke:#181818;stroke-width:0.5;stroke-dasharray:5.0,5.0;" x1="413" x2="413" y1="123.2422" y2="412.2012"/><line style="stroke:#181818;stroke-width:0.5;stroke-dasharray:5.0,5.0;" x1="735" x2="735" y1="123.2422" y2="412.2012"/><text fill="#000000" font-family="sans-serif" font-size="14" lengthAdjust="spacing" textLength="29" x="20" y="119.7285">User</text><ellipse cx="37.5" cy="53.1211" fill="#E3E3E3" rx="8" ry="8" style="stroke:#181818;stroke-width:0.5;"/><path d="M37.5,61.1211 L37.5,88.1211 M24.5,69.1211 L50.5,69.1211 M37.5,88.1211 L24.5,103.1211 M37.5,88.1211 L50.5,103.1211 " fill="none" style="stroke:#181818;stroke-width:0.5;"/><text fill="#000000" font-family="sans-serif" font-size="14" lengthAdjust="spacing" textLength="29" x="20" y="426.3086">User</text><ellipse cx="37.5" cy="438.3223" fill="#E3E3E3" rx="8" ry="8" style="stroke:#181818;stroke-width:0.5;"/><path d="M37.5,446.3223 L37.5,473.3223 M24.5,454.3223 L50.5,454.3223 M37.5,473.3223 L24.5,488.3223 M37.5,473.3223 L50.5,488.3223 " fill="none" style="stroke:#181818;stroke-width:0.5;"/><rect fill="#E3E3E3" height="32.6211" rx="2.5" ry="2.5" style="stroke:#181818;stroke-width:0.5;" width="41" x="393" y="89.6211"/><text fill="#000000" font-family="sans-serif" font-size="14" lengthAdjust="spacing" textLength="27" x="400" y="111.7285">SPA</text><rect fill="#E3E3E3" height="32.6211" rx="2.5" ry="2.5" style="stroke:#181818;stroke-width:0.5;" width="41" x="393" y="411.2012"/><text fill="#000000" font-family="sans-serif" font-size="14" lengthAdjust="spacing" textLength="27" x="400" y="433.3086">SPA</text><rect fill="#E3E3E3" height="32.6211" rx="2.5" ry="2.5" style="stroke:#181818;stroke-width:0.5;" width="69" x="701" y="89.6211"/><text fill="#000000" font-family="sans-serif" font-size="14" lengthAdjust="spacing" textLength="55" x="708" y="111.7285">Passage</text><rect fill="#E3E3E3" height="32.6211" rx="2.5" ry="2.5" style="stroke:#181818;stroke-width:0.5;" width="69" x="701" y="411.2012"/><text fill="#000000" font-family="sans-serif" font-size="14" lengthAdjust="spacing" textLength="55" x="708" y="433.3086">Passage</text><rect fill="#FFFFFF" height="269.959" style="stroke:#181818;stroke-width:1.0;" width="10" x="32.5" y="133.2422"/><rect fill="#FFFFFF" height="246.668" style="stroke:#181818;stroke-width:1.0;" width="10" x="408.5" y="156.5332"/><rect fill="#FFFFFF" height="31.291" style="stroke:#181818;stroke-width:1.0;" width="10" x="730.5" y="250.4063"/><polygon fill="#181818" points="396.5,152.5332,406.5,156.5332,396.5,160.5332,400.5,156.5332" style="stroke:#181818;stroke-width:1.0;"/><line style="stroke:#181818;stroke-width:1.0;" x1="42.5" x2="402.5" y1="156.5332" y2="156.5332"/><text fill="#000000" font-family="sans-serif" font-size="13" lengthAdjust="spacing" textLength="145" x="49.5" y="151.2705">Asks to create a passafe</text><polygon fill="#181818" points="53.5,183.8242,43.5,187.8242,53.5,191.8242,49.5,187.8242" style="stroke:#181818;stroke-width:1.0;"/><line style="stroke:#181818;stroke-width:1.0;" x1="47.5" x2="407.5" y1="187.8242" y2="187.8242"/><text fill="#000000" font-family="sans-serif" font-size="13" lengthAdjust="spacing" textLength="342" x="59.5" y="182.5615">Requests passage data (fromFloorId, toFloorId, description)</text><polygon fill="#181818" points="396.5,215.1152,406.5,219.1152,396.5,223.1152,400.5,219.1152" style="stroke:#181818;stroke-width:1.0;"/><line style="stroke:#181818;stroke-width:1.0;" x1="42.5" x2="402.5" y1="219.1152" y2="219.1152"/><text fill="#000000" font-family="sans-serif" font-size="13" lengthAdjust="spacing" textLength="129" x="49.5" y="213.8525">Inserts requested data</text><polygon fill="#181818" points="718.5,246.4063,728.5,250.4063,718.5,254.4063,722.5,250.4063" style="stroke:#181818;stroke-width:1.0;"/><line style="stroke:#181818;stroke-width:1.0;" x1="418.5" x2="724.5" y1="250.4063" y2="250.4063"/><text fill="#000000" font-family="sans-serif" font-size="13" lengthAdjust="spacing" textLength="293" x="425.5" y="245.1436">POST/ passage{fromFloorId, toFloorId, description}</text><polygon fill="#181818" points="429.5,277.6973,419.5,281.6973,429.5,285.6973,425.5,281.6973" style="stroke:#181818;stroke-width:1.0;"/><line style="stroke:#181818;stroke-width:1.0;" x1="423.5" x2="734.5" y1="281.6973" y2="281.6973"/><text fill="#000000" font-family="sans-serif" font-size="13" lengthAdjust="spacing" textLength="70" x="435.5" y="276.4346">Status code</text><path d="M10,296.6973 L71,296.6973 L71,305.9883 L61,315.9883 L10,315.9883 L10,296.6973 " fill="#EEEEEE" style="stroke:#000000;stroke-width:1.5;"/><rect fill="none" height="98.5039" style="stroke:#000000;stroke-width:1.5;" width="434" x="10" y="296.6973"/><text fill="#000000" font-family="sans-serif" font-size="13" font-weight="bold" lengthAdjust="spacing" textLength="16" x="25" y="311.7256">alt</text><text fill="#000000" font-family="sans-serif" font-size="11" font-weight="bold" lengthAdjust="spacing" textLength="101" x="86" y="310.5674">[successfull case]</text><polygon fill="#181818" points="53.5,335.2793,43.5,339.2793,53.5,343.2793,49.5,339.2793" style="stroke:#181818;stroke-width:1.0;"/><line style="stroke:#181818;stroke-width:1.0;" x1="47.5" x2="407.5" y1="339.2793" y2="339.2793"/><text fill="#000000" font-family="sans-serif" font-size="13" lengthAdjust="spacing" textLength="188" x="59.5" y="334.0166">Passage is created successfully</text><line style="stroke:#000000;stroke-width:1.0;stroke-dasharray:2.0,2.0;" x1="10" x2="444" y1="348.2793" y2="348.2793"/><text fill="#000000" font-family="sans-serif" font-size="11" font-weight="bold" lengthAdjust="spacing" textLength="72" x="15" y="360.1494">[failure case]</text><polygon fill="#181818" points="53.5,383.2012,43.5,387.2012,53.5,391.2012,49.5,387.2012" style="stroke:#181818;stroke-width:1.0;"/><line style="stroke:#181818;stroke-width:1.0;" x1="47.5" x2="407.5" y1="387.2012" y2="387.2012"/><text fill="#000000" font-family="sans-serif" font-size="13" lengthAdjust="spacing" textLength="134" x="59.5" y="381.9385">Passage is not created</text><!--SRC=[ZL5BIyGm4BxdLmnxKb3KWvSUX0KHzY0Mw_w08PdMiDcaPgRA8lvt9zrs7nVnafamtsCUlF6nnunRU4unsVUSjWII1p9ygDHeDzXH8xj0aCaAnYwS0fftTEdBnmvQ34p6Y1U5DlGnKBG4ZnuxnLMmRkxkRur1Aod3OisK5u0C9J4g9Txw7gF0egcNOqNZUQ56PkrbB4xvgES_KMWlPCeBrm-531KiUSCW2Moc0a7e2wsb8wkO5AnI2hM2rz8u2- -X7O53GRXeTJbF8QMySbUgU4WTiSs-5v_YvQbv1QkeFzN9Uq5oevAPtQO1AgXVchURsUtx7pu_n-xdBKpnuDq8oi1WaoFZQ8Rhie803zOISpk401RrOcVZpqgUfwMvKyBEaDvOB-t3aEblUamoInYAplm2]--></g></svg>