<?xml version="1.0" encoding="us-ascii" standalone="no"?><svg xmlns="http://www.w3.org/2000/svg" xmlns:xlink="http://www.w3.org/1999/xlink" contentStyleType="text/css" height="544.5px" preserveAspectRatio="none" style="width:806px;height:544px;background:#FFFFFF;" version="1.1" viewBox="0 0 806 544" width="806.3px" zoomAndPan="magnify"><defs/><g><text fill="#000000" font-family="sans-serif" font-size="15.4" font-weight="bold" lengthAdjust="spacing" textLength="201.3" x="301.4" y="33.1182">Sequence Diagram: US150</text><rect fill="#FFFFFF" height="296.9549" style="stroke:#181818;stroke-width:1.1;" width="11" x="35.75" y="146.5664"/><rect fill="#FFFFFF" height="271.3348" style="stroke:#181818;stroke-width:1.1;" width="11" x="431.75" y="172.1865"/><rect fill="#FFFFFF" height="34.4201" style="stroke:#181818;stroke-width:1.1;" width="11" x="768.35" y="275.4469"/><rect fill="none" height="108.3543" style="stroke:#000000;stroke-width:1.6500000000000001;" width="459.8" x="11" y="326.367"/><line style="stroke:#181818;stroke-width:0.55;stroke-dasharray:5.0,5.0;" x1="40.7" x2="40.7" y1="135.5664" y2="453.4213"/><line style="stroke:#181818;stroke-width:0.55;stroke-dasharray:5.0,5.0;" x1="436.7" x2="436.7" y1="135.5664" y2="453.4213"/><line style="stroke:#181818;stroke-width:0.55;stroke-dasharray:5.0,5.0;" x1="773.3" x2="773.3" y1="135.5664" y2="453.4213"/><text fill="#000000" font-family="sans-serif" font-size="15.4" lengthAdjust="spacing" textLength="31.9" x="22" y="131.7014">User</text><ellipse cx="41.25" cy="58.4332" fill="#E3E3E3" rx="8.8" ry="8.8" style="stroke:#181818;stroke-width:0.55;"/><path d="M41.25,67.2332 L41.25,96.9332 M26.95,76.0332 L55.55,76.0332 M41.25,96.9332 L26.95,113.4332 M41.25,96.9332 L55.55,113.4332 " fill="none" style="stroke:#181818;stroke-width:0.55;"/><text fill="#000000" font-family="sans-serif" font-size="15.4" lengthAdjust="spacing" textLength="31.9" x="22" y="468.9395">User</text><ellipse cx="41.25" cy="482.1545" fill="#E3E3E3" rx="8.8" ry="8.8" style="stroke:#181818;stroke-width:0.55;"/><path d="M41.25,490.9545 L41.25,520.6545 M26.95,499.7545 L55.55,499.7545 M41.25,520.6545 L26.95,537.1545 M41.25,520.6545 L55.55,537.1545 " fill="none" style="stroke:#181818;stroke-width:0.55;"/><rect fill="#E3E3E3" height="35.8832" rx="2.75" ry="2.75" style="stroke:#181818;stroke-width:0.55;" width="45.1" x="414.7" y="98.5832"/><text fill="#000000" font-family="sans-serif" font-size="15.4" lengthAdjust="spacing" textLength="29.7" x="422.4" y="122.9014">SPA</text><rect fill="#E3E3E3" height="35.8832" rx="2.75" ry="2.75" style="stroke:#181818;stroke-width:0.55;" width="45.1" x="414.7" y="452.3213"/><text fill="#000000" font-family="sans-serif" font-size="15.4" lengthAdjust="spacing" textLength="29.7" x="422.4" y="476.6395">SPA</text><rect fill="#E3E3E3" height="35.8832" rx="2.75" ry="2.75" style="stroke:#181818;stroke-width:0.55;" width="51.7" x="748" y="98.5832"/><text fill="#000000" font-family="sans-serif" font-size="15.4" lengthAdjust="spacing" textLength="36.3" x="755.7" y="122.9014">Floor</text><rect fill="#E3E3E3" height="35.8832" rx="2.75" ry="2.75" style="stroke:#181818;stroke-width:0.55;" width="51.7" x="748" y="452.3213"/><text fill="#000000" font-family="sans-serif" font-size="15.4" lengthAdjust="spacing" textLength="36.3" x="755.7" y="476.6395">Floor</text><rect fill="#FFFFFF" height="296.9549" style="stroke:#181818;stroke-width:1.1;" width="11" x="35.75" y="146.5664"/><rect fill="#FFFFFF" height="271.3348" style="stroke:#181818;stroke-width:1.1;" width="11" x="431.75" y="172.1865"/><rect fill="#FFFFFF" height="34.4201" style="stroke:#181818;stroke-width:1.1;" width="11" x="768.35" y="275.4469"/><polygon fill="#181818" points="418.55,167.7865,429.55,172.1865,418.55,176.5865,422.95,172.1865" style="stroke:#181818;stroke-width:1.1;"/><line style="stroke:#181818;stroke-width:1.1;" x1="46.75" x2="425.15" y1="172.1865" y2="172.1865"/><text fill="#000000" font-family="sans-serif" font-size="14.3" lengthAdjust="spacing" textLength="136.4" x="54.45" y="166.3976">Asks to create a floor</text><polygon fill="#181818" points="58.85,202.2066,47.85,206.6066,58.85,211.0066,54.45,206.6066" style="stroke:#181818;stroke-width:1.1;"/><line style="stroke:#181818;stroke-width:1.1;" x1="52.25" x2="430.65" y1="206.6066" y2="206.6066"/><text fill="#000000" font-family="sans-serif" font-size="14.3" lengthAdjust="spacing" textLength="358.6" x="65.45" y="200.8177">Requests floor data (floorNumber, buildingId, description)</text><polygon fill="#181818" points="418.55,236.6268,429.55,241.0268,418.55,245.4268,422.95,241.0268" style="stroke:#181818;stroke-width:1.1;"/><line style="stroke:#181818;stroke-width:1.1;" x1="46.75" x2="425.15" y1="241.0268" y2="241.0268"/><text fill="#000000" font-family="sans-serif" font-size="14.3" lengthAdjust="spacing" textLength="141.9" x="54.45" y="235.2378">Inserts requested data</text><polygon fill="#181818" points="755.15,271.0469,766.15,275.4469,755.15,279.8469,759.55,275.4469" style="stroke:#181818;stroke-width:1.1;"/><line style="stroke:#181818;stroke-width:1.1;" x1="442.75" x2="761.75" y1="275.4469" y2="275.4469"/><text fill="#000000" font-family="sans-serif" font-size="14.3" lengthAdjust="spacing" textLength="304.7" x="450.45" y="269.6579">POST/ floor{floorNumber, buildingId, description}</text><polygon fill="#181818" points="454.85,305.467,443.85,309.867,454.85,314.267,450.45,309.867" style="stroke:#181818;stroke-width:1.1;"/><line style="stroke:#181818;stroke-width:1.1;" x1="448.25" x2="772.75" y1="309.867" y2="309.867"/><text fill="#000000" font-family="sans-serif" font-size="14.3" lengthAdjust="spacing" textLength="77" x="461.45" y="304.078">Status code</text><path d="M11,326.367 L78.1,326.367 L78.1,336.5871 L67.1,347.5871 L11,347.5871 L11,326.367 " fill="#EEEEEE" style="stroke:#000000;stroke-width:1.6500000000000001;"/><rect fill="none" height="108.3543" style="stroke:#000000;stroke-width:1.6500000000000001;" width="459.8" x="11" y="326.367"/><text fill="#000000" font-family="sans-serif" font-size="14.3" font-weight="bold" lengthAdjust="spacing" textLength="17.6" x="27.5" y="342.8981">alt</text><text fill="#000000" font-family="sans-serif" font-size="12.1" font-weight="bold" lengthAdjust="spacing" textLength="111.1" x="94.6" y="341.6241">[successfull case]</text><polygon fill="#181818" points="58.85,368.8072,47.85,373.2072,58.85,377.6072,54.45,373.2072" style="stroke:#181818;stroke-width:1.1;"/><line style="stroke:#181818;stroke-width:1.1;" x1="52.25" x2="430.65" y1="373.2072" y2="373.2072"/><text fill="#000000" font-family="sans-serif" font-size="14.3" lengthAdjust="spacing" textLength="182.6" x="65.45" y="367.4183">Floor is created successfully</text><line style="stroke:#000000;stroke-width:1.1;stroke-dasharray:2.0,2.0;" x1="11" x2="470.8" y1="383.1072" y2="383.1072"/><text fill="#000000" font-family="sans-serif" font-size="12.1" font-weight="bold" lengthAdjust="spacing" textLength="79.2" x="16.5" y="396.1644">[failure case]</text><polygon fill="#181818" points="58.85,421.5213,47.85,425.9213,58.85,430.3213,54.45,425.9213" style="stroke:#181818;stroke-width:1.1;"/><line style="stroke:#181818;stroke-width:1.1;" x1="52.25" x2="430.65" y1="425.9213" y2="425.9213"/><text fill="#000000" font-family="sans-serif" font-size="14.3" lengthAdjust="spacing" textLength="123.2" x="65.45" y="420.1323">Floor is not created</text><!--SRC=[ZL7BIaCn4DtdAuQk52hgmirT20KfTA4MOpzWcanlGzEaPYPA4V_T9DVMTYDk9XFcFER16nTsc70BZp54iqvnIo0fa-9ZPOvcWprfsNk2H4OmzFuKeDTeuuSBFQpGCoabJWfKqrkcO0WU7FO5ry52tzxTA8L6OeBHWYcD01bgeegKEEDs60H6UZvfbVAU5wO-ne7KigRbtb5e454rmjLz9K874zumI0IJg48GLerqv5JvYYo4IkpWfRRCmWCGB0h2HSkVydP9QGpBxBmjeyxi62onIMudBeRBK-SEPg7yYamQzCWsANKmQxrtC7_MhzU3rUT_JBv-En-cR_5egWKbCvXeILawGCkAl01dOuXvbRq7W-L6PsCFEev_5cLFuNj5vQRbiixdH7-HGvI3WA9WrJS0]--></g></svg>