<?xml version="1.0" encoding="us-ascii" standalone="no"?><svg xmlns="http://www.w3.org/2000/svg" xmlns:xlink="http://www.w3.org/1999/xlink" contentStyleType="text/css" height="427.2px" preserveAspectRatio="none" style="width:648px;height:427px;background:#FFFFFF;" version="1.1" viewBox="0 0 648 427" width="648px" zoomAndPan="magnify"><defs/><g><rect fill="#FFFFFF" height="344.0594" style="stroke:#181818;stroke-width:0.8000000000000002;" width="8" x="16.4" y="38.8969"/><rect fill="#FFFFFF" height="325.4266" style="stroke:#181818;stroke-width:0.8000000000000002;" width="8" x="134" y="57.5297"/><rect fill="#FFFFFF" height="275.3609" style="stroke:#181818;stroke-width:0.8000000000000002;" width="8" x="235.6" y="82.5625"/><rect fill="#FFFFFF" height="225.2953" style="stroke:#181818;stroke-width:0.8000000000000002;" width="8" x="345.2" y="107.5953"/><rect fill="#FFFFFF" height="25.0328" style="stroke:#181818;stroke-width:0.8000000000000002;" width="8" x="477.2" y="132.6281"/><rect fill="#FFFFFF" height="25.0328" style="stroke:#181818;stroke-width:0.8000000000000002;" width="8" x="477.2" y="232.7594"/><rect fill="#FFFFFF" height="25.0328" style="stroke:#181818;stroke-width:0.8000000000000002;" width="8" x="536.4" y="182.6938"/><rect fill="#FFFFFF" height="25.0328" style="stroke:#181818;stroke-width:0.8000000000000002;" width="8" x="601.2" y="282.825"/><line style="stroke:#181818;stroke-width:0.4000000000000001;stroke-dasharray:5.0,5.0;" x1="20" x2="20" y1="30.8969" y2="397.3563"/><line style="stroke:#181818;stroke-width:0.4000000000000001;stroke-dasharray:5.0,5.0;" x1="137.6" x2="137.6" y1="30.8969" y2="397.3563"/><line style="stroke:#181818;stroke-width:0.4000000000000001;stroke-dasharray:5.0,5.0;" x1="239.2" x2="239.2" y1="30.8969" y2="397.3563"/><line style="stroke:#181818;stroke-width:0.4000000000000001;stroke-dasharray:5.0,5.0;" x1="349.2" x2="349.2" y1="30.8969" y2="397.3563"/><line style="stroke:#181818;stroke-width:0.4000000000000001;stroke-dasharray:5.0,5.0;" x1="480.8" x2="480.8" y1="30.8969" y2="397.3563"/><line style="stroke:#181818;stroke-width:0.4000000000000001;stroke-dasharray:5.0,5.0;" x1="540" x2="540" y1="30.8969" y2="397.3563"/><line style="stroke:#181818;stroke-width:0.4000000000000001;stroke-dasharray:5.0,5.0;" x1="604.8" x2="604.8" y1="30.8969" y2="397.3563"/><rect fill="#E2E2F0" height="26.0969" rx="2" ry="2" style="stroke:#181818;stroke-width:0.4000000000000001;" width="32.8" x="4" y="4"/><text fill="#000000" font-family="sans-serif" font-size="11.2" lengthAdjust="spacing" textLength="21.6" x="9.6" y="21.6859">SPA</text><rect fill="#E2E2F0" height="26.0969" rx="2" ry="2" style="stroke:#181818;stroke-width:0.4000000000000001;" width="32.8" x="4" y="396.5563"/><text fill="#000000" font-family="sans-serif" font-size="11.2" lengthAdjust="spacing" textLength="21.6" x="9.6" y="414.2422">SPA</text><rect fill="#E2E2F0" height="26.0969" rx="2" ry="2" style="stroke:#181818;stroke-width:0.4000000000000001;" width="28" x="124" y="4"/><text fill="#000000" font-family="sans-serif" font-size="11.2" lengthAdjust="spacing" textLength="16.8" x="129.6" y="21.6859">API</text><rect fill="#E2E2F0" height="26.0969" rx="2" ry="2" style="stroke:#181818;stroke-width:0.4000000000000001;" width="28" x="124" y="396.5563"/><text fill="#000000" font-family="sans-serif" font-size="11.2" lengthAdjust="spacing" textLength="16.8" x="129.6" y="414.2422">API</text><rect fill="#E2E2F0" height="26.0969" rx="2" ry="2" style="stroke:#181818;stroke-width:0.4000000000000001;" width="87.2" x="196" y="4"/><text fill="#000000" font-family="sans-serif" font-size="11.2" lengthAdjust="spacing" textLength="76" x="201.6" y="21.6859">FloorController</text><rect fill="#E2E2F0" height="26.0969" rx="2" ry="2" style="stroke:#181818;stroke-width:0.4000000000000001;" width="87.2" x="196" y="396.5563"/><text fill="#000000" font-family="sans-serif" font-size="11.2" lengthAdjust="spacing" textLength="76" x="201.6" y="414.2422">FloorController</text><rect fill="#E2E2F0" height="26.0969" rx="2" ry="2" style="stroke:#181818;stroke-width:0.4000000000000001;" width="75.2" x="311.6" y="4"/><text fill="#000000" font-family="sans-serif" font-size="11.2" lengthAdjust="spacing" textLength="64" x="317.2" y="21.6859">FloorService</text><rect fill="#E2E2F0" height="26.0969" rx="2" ry="2" style="stroke:#181818;stroke-width:0.4000000000000001;" width="75.2" x="311.6" y="396.5563"/><text fill="#000000" font-family="sans-serif" font-size="11.2" lengthAdjust="spacing" textLength="64" x="317.2" y="414.2422">FloorService</text><rect fill="#E2E2F0" height="26.0969" rx="2" ry="2" style="stroke:#181818;stroke-width:0.4000000000000001;" width="64.8" x="448.8" y="4"/><text fill="#000000" font-family="sans-serif" font-size="11.2" lengthAdjust="spacing" textLength="53.6" x="454.4" y="21.6859">FloorRepo</text><rect fill="#E2E2F0" height="26.0969" rx="2" ry="2" style="stroke:#181818;stroke-width:0.4000000000000001;" width="64.8" x="448.8" y="396.5563"/><text fill="#000000" font-family="sans-serif" font-size="11.2" lengthAdjust="spacing" textLength="53.6" x="454.4" y="414.2422">FloorRepo</text><rect fill="#E2E2F0" height="26.0969" rx="2" ry="2" style="stroke:#181818;stroke-width:0.4000000000000001;" width="37.6" x="521.6" y="4"/><text fill="#000000" font-family="sans-serif" font-size="11.2" lengthAdjust="spacing" textLength="26.4" x="527.2" y="21.6859">Floor</text><rect fill="#E2E2F0" height="26.0969" rx="2" ry="2" style="stroke:#181818;stroke-width:0.4000000000000001;" width="37.6" x="521.6" y="396.5563"/><text fill="#000000" font-family="sans-serif" font-size="11.2" lengthAdjust="spacing" textLength="26.4" x="527.2" y="414.2422">Floor</text><rect fill="#E2E2F0" height="26.0969" rx="2" ry="2" style="stroke:#181818;stroke-width:0.4000000000000001;" width="76" x="567.2" y="4"/><text fill="#000000" font-family="sans-serif" font-size="11.2" lengthAdjust="spacing" textLength="64.8" x="572.8" y="21.6859">FloorMapper</text><rect fill="#E2E2F0" height="26.0969" rx="2" ry="2" style="stroke:#181818;stroke-width:0.4000000000000001;" width="76" x="567.2" y="396.5563"/><text fill="#000000" font-family="sans-serif" font-size="11.2" lengthAdjust="spacing" textLength="64.8" x="572.8" y="414.2422">FloorMapper</text><rect fill="#FFFFFF" height="344.0594" style="stroke:#181818;stroke-width:0.8000000000000002;" width="8" x="16.4" y="38.8969"/><rect fill="#FFFFFF" height="325.4266" style="stroke:#181818;stroke-width:0.8000000000000002;" width="8" x="134" y="57.5297"/><rect fill="#FFFFFF" height="275.3609" style="stroke:#181818;stroke-width:0.8000000000000002;" width="8" x="235.6" y="82.5625"/><rect fill="#FFFFFF" height="225.2953" style="stroke:#181818;stroke-width:0.8000000000000002;" width="8" x="345.2" y="107.5953"/><rect fill="#FFFFFF" height="25.0328" style="stroke:#181818;stroke-width:0.8000000000000002;" width="8" x="477.2" y="132.6281"/><rect fill="#FFFFFF" height="25.0328" style="stroke:#181818;stroke-width:0.8000000000000002;" width="8" x="477.2" y="232.7594"/><rect fill="#FFFFFF" height="25.0328" style="stroke:#181818;stroke-width:0.8000000000000002;" width="8" x="536.4" y="182.6938"/><rect fill="#FFFFFF" height="25.0328" style="stroke:#181818;stroke-width:0.8000000000000002;" width="8" x="601.2" y="282.825"/><polygon fill="#181818" points="124.4,54.3297,132.4,57.5297,124.4,60.7297,127.6,57.5297" style="stroke:#181818;stroke-width:0.8000000000000002;"/><line style="stroke:#181818;stroke-width:0.8000000000000002;" x1="24.4" x2="129.2" y1="57.5297" y2="57.5297"/><text fill="#000000" font-family="sans-serif" font-size="10.4" lengthAdjust="spacing" textLength="94.4" x="30" y="53.3195">put/patch(/api/floors)</text><polygon fill="#181818" points="226,79.3625,234,82.5625,226,85.7625,229.2,82.5625" style="stroke:#181818;stroke-width:0.8000000000000002;"/><line style="stroke:#181818;stroke-width:0.8000000000000002;" x1="142" x2="230.8" y1="82.5625" y2="82.5625"/><text fill="#000000" font-family="sans-serif" font-size="10.4" lengthAdjust="spacing" textLength="43.2" x="147.6" y="78.3523">put/patch</text><polygon fill="#181818" points="335.6,104.3953,343.6,107.5953,335.6,110.7953,338.8,107.5953" style="stroke:#181818;stroke-width:0.8000000000000002;"/><line style="stroke:#181818;stroke-width:0.8000000000000002;" x1="243.6" x2="340.4" y1="107.5953" y2="107.5953"/><text fill="#000000" font-family="sans-serif" font-size="10.4" lengthAdjust="spacing" textLength="86.4" x="249.2" y="103.3852">editFloor(floorDTO)</text><polygon fill="#181818" points="467.6,129.4281,475.6,132.6281,467.6,135.8281,470.8,132.6281" style="stroke:#181818;stroke-width:0.8000000000000002;"/><line style="stroke:#181818;stroke-width:0.8000000000000002;" x1="353.2" x2="472.4" y1="132.6281" y2="132.6281"/><text fill="#000000" font-family="sans-serif" font-size="10.4" lengthAdjust="spacing" textLength="108.8" x="358.8" y="128.418">findByDomainId(floor.id)</text><polygon fill="#181818" points="362,154.4609,354,157.6609,362,160.8609,358.8,157.6609" style="stroke:#181818;stroke-width:0.8000000000000002;"/><line style="stroke:#181818;stroke-width:0.8000000000000002;stroke-dasharray:2.0,2.0;" x1="357.2" x2="480.4" y1="157.6609" y2="157.6609"/><text fill="#000000" font-family="sans-serif" font-size="10.4" lengthAdjust="spacing" textLength="19.2" x="366.8" y="153.4508">floor</text><polygon fill="#181818" points="526.8,179.4938,534.8,182.6938,526.8,185.8938,530,182.6938" style="stroke:#181818;stroke-width:0.8000000000000002;"/><line style="stroke:#181818;stroke-width:0.8000000000000002;" x1="353.2" x2="531.6" y1="182.6938" y2="182.6938"/><text fill="#000000" font-family="sans-serif" font-size="10.4" lengthAdjust="spacing" textLength="16.8" x="358.8" y="178.4836">edit</text><polygon fill="#181818" points="362,204.5266,354,207.7266,362,210.9266,358.8,207.7266" style="stroke:#181818;stroke-width:0.8000000000000002;"/><line style="stroke:#181818;stroke-width:0.8000000000000002;" x1="357.2" x2="539.6" y1="207.7266" y2="207.7266"/><text fill="#000000" font-family="sans-serif" font-size="10.4" lengthAdjust="spacing" textLength="19.2" x="366.8" y="203.5164">floor</text><polygon fill="#181818" points="467.6,229.5594,475.6,232.7594,467.6,235.9594,470.8,232.7594" style="stroke:#181818;stroke-width:0.8000000000000002;"/><line style="stroke:#181818;stroke-width:0.8000000000000002;" x1="353.2" x2="472.4" y1="232.7594" y2="232.7594"/><text fill="#000000" font-family="sans-serif" font-size="10.4" lengthAdjust="spacing" textLength="46.4" x="358.8" y="228.5492">save(floor)</text><polygon fill="#181818" points="362,254.5922,354,257.7922,362,260.9922,358.8,257.7922" style="stroke:#181818;stroke-width:0.8000000000000002;"/><line style="stroke:#181818;stroke-width:0.8000000000000002;stroke-dasharray:2.0,2.0;" x1="357.2" x2="480.4" y1="257.7922" y2="257.7922"/><text fill="#000000" font-family="sans-serif" font-size="10.4" lengthAdjust="spacing" textLength="19.2" x="366.8" y="253.582">floor</text><polygon fill="#181818" points="591.6,279.625,599.6,282.825,591.6,286.025,594.8,282.825" style="stroke:#181818;stroke-width:0.8000000000000002;"/><line style="stroke:#181818;stroke-width:0.8000000000000002;" x1="353.2" x2="596.4" y1="282.825" y2="282.825"/><text fill="#000000" font-family="sans-serif" font-size="10.4" lengthAdjust="spacing" textLength="55.2" x="358.8" y="278.6148">toDTO(floor)</text><polygon fill="#181818" points="362,304.6578,354,307.8578,362,311.0578,358.8,307.8578" style="stroke:#181818;stroke-width:0.8000000000000002;"/><line style="stroke:#181818;stroke-width:0.8000000000000002;stroke-dasharray:2.0,2.0;" x1="357.2" x2="604.4" y1="307.8578" y2="307.8578"/><text fill="#000000" font-family="sans-serif" font-size="10.4" lengthAdjust="spacing" textLength="40" x="366.8" y="303.6477">floorDTO</text><polygon fill="#181818" points="252.4,329.6906,244.4,332.8906,252.4,336.0906,249.2,332.8906" style="stroke:#181818;stroke-width:0.8000000000000002;"/><line style="stroke:#181818;stroke-width:0.8000000000000002;stroke-dasharray:2.0,2.0;" x1="247.6" x2="348.4" y1="332.8906" y2="332.8906"/><text fill="#000000" font-family="sans-serif" font-size="10.4" lengthAdjust="spacing" textLength="40" x="257.2" y="328.6805">floorDTO</text><polygon fill="#181818" points="150.8,354.7234,142.8,357.9234,150.8,361.1234,147.6,357.9234" style="stroke:#181818;stroke-width:0.8000000000000002;"/><line style="stroke:#181818;stroke-width:0.8000000000000002;stroke-dasharray:2.0,2.0;" x1="146" x2="238.8" y1="357.9234" y2="357.9234"/><text fill="#000000" font-family="sans-serif" font-size="10.4" lengthAdjust="spacing" textLength="74.4" x="155.6" y="353.7133">status code 201</text><polygon fill="#181818" points="29.2,379.7563,21.2,382.9563,29.2,386.1563,26,382.9563" style="stroke:#181818;stroke-width:0.8000000000000002;"/><line style="stroke:#181818;stroke-width:0.8000000000000002;stroke-dasharray:2.0,2.0;" x1="24.4" x2="137.2" y1="382.9563" y2="382.9563"/><text fill="#000000" font-family="sans-serif" font-size="10.4" lengthAdjust="spacing" textLength="39.2" x="34" y="378.7461">success</text><!--SRC=[lPCnJyCm48Nt-nKUsw4461cG2XLI1qH5-GCd-oeifR4LNoBnxpax2JLEoiYG8SdxtlF9xr2pxP597GzRa4Tj7jNsi5SFodTSUMJzkQhGs-fKEzU6DU04Y0eWIeLuYJ-VNSEjgsjgS_e252A0afgCZjJsLfEuaB6SFgrI_ExZRLtuZThHR28dftVoJcnEjZ5FNpjtHjlipU1rOqtf5TLmuJRpyoGI32rmomSOPoY21cqvxzp-xwa2zZJCyW-3lABtwMBPoIqinmuQoFNNeiLZbZxYHVvYkwvw_Av3tgsVNWT6xeBIpf2wlxsRMUGDJVKMCYw6a9tM549Ef2N8tkCMVGC0]--></g></svg>