<?xml version="1.0" encoding="us-ascii" standalone="no"?><svg xmlns="http://www.w3.org/2000/svg" xmlns:xlink="http://www.w3.org/1999/xlink" contentStyleType="text/css" height="445.5px" preserveAspectRatio="none" style="width:710px;height:445px;background:#FFFFFF;" version="1.1" viewBox="0 0 710 445" width="710.1px" zoomAndPan="magnify"><defs/><g><text fill="#000000" font-family="sans-serif" font-size="12.6" font-weight="bold" lengthAdjust="spacing" textLength="164.7" x="272.025" y="27.0967">Sequence Diagram: US150</text><rect fill="#FFFFFF" height="242.9631" style="stroke:#181818;stroke-width:0.9;" width="9" x="29.25" y="119.918"/><rect fill="#FFFFFF" height="222.0012" style="stroke:#181818;stroke-width:0.9;" width="9" x="374.85" y="140.8799"/><rect fill="#FFFFFF" height="28.1619" style="stroke:#181818;stroke-width:0.9;" width="9" x="671.85" y="225.3656"/><rect fill="none" height="88.6535" style="stroke:#000000;stroke-width:1.35;" width="397.8" x="9" y="267.0275"/><line style="stroke:#181818;stroke-width:0.45;stroke-dasharray:5.0,5.0;" x1="33.3" x2="33.3" y1="110.918" y2="370.9811"/><line style="stroke:#181818;stroke-width:0.45;stroke-dasharray:5.0,5.0;" x1="378.9" x2="378.9" y1="110.918" y2="370.9811"/><line style="stroke:#181818;stroke-width:0.45;stroke-dasharray:5.0,5.0;" x1="676.35" x2="676.35" y1="110.918" y2="370.9811"/><text fill="#000000" font-family="sans-serif" font-size="12.6" lengthAdjust="spacing" textLength="26.1" x="18" y="107.7557">User</text><ellipse cx="33.75" cy="47.809" fill="#E3E3E3" rx="7.2" ry="7.2" style="stroke:#181818;stroke-width:0.45;"/><path d="M33.75,55.009 L33.75,79.309 M22.05,62.209 L45.45,62.209 M33.75,79.309 L22.05,92.809 M33.75,79.309 L45.45,92.809 " fill="none" style="stroke:#181818;stroke-width:0.45;"/><text fill="#000000" font-family="sans-serif" font-size="12.6" lengthAdjust="spacing" textLength="26.1" x="18" y="383.6777">User</text><ellipse cx="33.75" cy="394.49" fill="#E3E3E3" rx="7.2" ry="7.2" style="stroke:#181818;stroke-width:0.45;"/><path d="M33.75,401.69 L33.75,425.99 M22.05,408.89 L45.45,408.89 M33.75,425.99 L22.05,439.49 M33.75,425.99 L45.45,439.49 " fill="none" style="stroke:#181818;stroke-width:0.45;"/><rect fill="#E3E3E3" height="29.359" rx="2.25" ry="2.25" style="stroke:#181818;stroke-width:0.45;" width="36.9" x="360.9" y="80.659"/><text fill="#000000" font-family="sans-serif" font-size="12.6" lengthAdjust="spacing" textLength="24.3" x="367.2" y="100.5557">SPA</text><rect fill="#E3E3E3" height="29.359" rx="2.25" ry="2.25" style="stroke:#181818;stroke-width:0.45;" width="36.9" x="360.9" y="370.0811"/><text fill="#000000" font-family="sans-serif" font-size="12.6" lengthAdjust="spacing" textLength="24.3" x="367.2" y="389.9777">SPA</text><rect fill="#E3E3E3" height="29.359" rx="2.25" ry="2.25" style="stroke:#181818;stroke-width:0.45;" width="57.6" x="647.55" y="80.659"/><text fill="#000000" font-family="sans-serif" font-size="12.6" lengthAdjust="spacing" textLength="45" x="653.85" y="100.5557">Building</text><rect fill="#E3E3E3" height="29.359" rx="2.25" ry="2.25" style="stroke:#181818;stroke-width:0.45;" width="57.6" x="647.55" y="370.0811"/><text fill="#000000" font-family="sans-serif" font-size="12.6" lengthAdjust="spacing" textLength="45" x="653.85" y="389.9777">Building</text><rect fill="#FFFFFF" height="242.9631" style="stroke:#181818;stroke-width:0.9;" width="9" x="29.25" y="119.918"/><rect fill="#FFFFFF" height="222.0012" style="stroke:#181818;stroke-width:0.9;" width="9" x="374.85" y="140.8799"/><rect fill="#FFFFFF" height="28.1619" style="stroke:#181818;stroke-width:0.9;" width="9" x="671.85" y="225.3656"/><polygon fill="#181818" points="364.05,137.2799,373.05,140.8799,364.05,144.4799,367.65,140.8799" style="stroke:#181818;stroke-width:0.9;"/><line style="stroke:#181818;stroke-width:0.9;" x1="38.25" x2="369.45" y1="140.8799" y2="140.8799"/><text fill="#000000" font-family="sans-serif" font-size="11.7" lengthAdjust="spacing" textLength="129.6" x="44.55" y="136.1435">Asks to create a buildingId</text><polygon fill="#181818" points="48.15,165.4418,39.15,169.0418,48.15,172.6418,44.55,169.0418" style="stroke:#181818;stroke-width:0.9;"/><line style="stroke:#181818;stroke-width:0.9;" x1="42.75" x2="373.95" y1="169.0418" y2="169.0418"/><text fill="#000000" font-family="sans-serif" font-size="11.7" lengthAdjust="spacing" textLength="315" x="53.55" y="164.3054">Requests buildingId data (name, description, dimension, code)</text><polygon fill="#181818" points="364.05,193.6037,373.05,197.2037,364.05,200.8037,367.65,197.2037" style="stroke:#181818;stroke-width:0.9;"/><line style="stroke:#181818;stroke-width:0.9;" x1="38.25" x2="369.45" y1="197.2037" y2="197.2037"/><text fill="#000000" font-family="sans-serif" font-size="11.7" lengthAdjust="spacing" textLength="116.1" x="44.55" y="192.4673">Inserts requested data</text><polygon fill="#181818" points="661.05,221.7656,670.05,225.3656,661.05,228.9656,664.65,225.3656" style="stroke:#181818;stroke-width:0.9;"/><line style="stroke:#181818;stroke-width:0.9;" x1="383.85" x2="666.45" y1="225.3656" y2="225.3656"/><text fill="#000000" font-family="sans-serif" font-size="11.7" lengthAdjust="spacing" textLength="270.9" x="390.15" y="220.6292">POST/ buildingId{name, description, dimension, code}</text><polygon fill="#181818" points="393.75,249.9275,384.75,253.5275,393.75,257.1275,390.15,253.5275" style="stroke:#181818;stroke-width:0.9;"/><line style="stroke:#181818;stroke-width:0.9;" x1="388.35" x2="675.45" y1="253.5275" y2="253.5275"/><text fill="#000000" font-family="sans-serif" font-size="11.7" lengthAdjust="spacing" textLength="63" x="399.15" y="248.7911">Status code</text><path d="M9,267.0275 L63.9,267.0275 L63.9,275.3895 L54.9,284.3895 L9,284.3895 L9,267.0275 " fill="#EEEEEE" style="stroke:#000000;stroke-width:1.35;"/><rect fill="none" height="88.6535" style="stroke:#000000;stroke-width:1.35;" width="397.8" x="9" y="267.0275"/><text fill="#000000" font-family="sans-serif" font-size="11.7" font-weight="bold" lengthAdjust="spacing" textLength="14.4" x="22.5" y="280.553">alt</text><text fill="#000000" font-family="sans-serif" font-size="9.9" font-weight="bold" lengthAdjust="spacing" textLength="90.9" x="77.4" y="279.5106">[successfull case]</text><polygon fill="#181818" points="48.15,301.7514,39.15,305.3514,48.15,308.9514,44.55,305.3514" style="stroke:#181818;stroke-width:0.9;"/><line style="stroke:#181818;stroke-width:0.9;" x1="42.75" x2="373.95" y1="305.3514" y2="305.3514"/><text fill="#000000" font-family="sans-serif" font-size="11.7" lengthAdjust="spacing" textLength="164.7" x="53.55" y="300.6149">Building is created successfully</text><line style="stroke:#000000;stroke-width:0.9;stroke-dasharray:2.0,2.0;" x1="9" x2="406.8" y1="313.4514" y2="313.4514"/><text fill="#000000" font-family="sans-serif" font-size="9.9" font-weight="bold" lengthAdjust="spacing" textLength="64.8" x="13.5" y="324.1345">[failure case]</text><polygon fill="#181818" points="48.15,344.8811,39.15,348.4811,48.15,352.0811,44.55,348.4811" style="stroke:#181818;stroke-width:0.9;"/><line style="stroke:#181818;stroke-width:0.9;" x1="42.75" x2="373.95" y1="348.4811" y2="348.4811"/><text fill="#000000" font-family="sans-serif" font-size="11.7" lengthAdjust="spacing" textLength="116.1" x="53.55" y="343.7446">Building is not created</text><!--SRC=[XL6zJWCn3Dxp55Oda430m783Kb4N1aH5w0EOnBr6pIKbTa0Lujr9hkHefow9BNy_oMVUkh33X0Cynn3D9iM1G58cnTDaYMQBFMdPUu94HZ3q_XYWDsZZbmizhD4pAILE2bJJHwPW21OE-uBhOANlxc-LGYCnmMp5b6Q03BLGHKgSSJiC0ZEzd8-JSfyE7hFpjZYDqzQCYkuJXGvIgfvm_L3fqC6SjmmImIIg48JtnfjerQU22wToEtYjRsVX2GiM1U4Yu41NO8bDSZjnCPJ63HHuB4sqT7diti5JA5tHIGT1igEGQcxj2nqiN_JRpMJtVTxev__vKn2jcEore6GUySfI8vJ0l01dOuXvdRq7WsLl9mbCKex_ahF7ZBsYikgoSETpeZFy4ALfA0fM_G80]--></g></svg>
